<svg width="341" height="143" viewBox="0 0 341 143" fill="none" xmlns="http://www.w3.org/2000/svg">
<path d="M0 109.275V98.2536L52.4858 1.78986H72.1208L19.8238 98.3478L17.275 93.3551H98.3071L106.293 101.315L98.3071 109.275H0ZM68.8168 132.646V93.3551L71.0824 55.9994L79.0591 48.8913L87.0358 55.9994V132.646L77.9263 141.21L68.8168 132.646Z" fill="#F5F6F6"/>
<path d="M169.737 143C159.479 143 150.605 140.614 143.116 135.841C135.69 131.005 129.932 123.343 125.841 112.855C121.813 102.367 119.8 88.5821 119.8 71.5C119.8 54.4179 121.813 40.6328 125.841 30.1449C129.869 19.657 135.596 12.0266 143.022 7.25362C150.511 2.41787 159.416 0 169.737 0C180.058 0 188.963 2.41787 196.452 7.25362C203.941 12.0266 209.699 19.657 213.727 30.1449C217.754 40.6328 219.768 54.4179 219.768 71.5C219.768 88.5821 217.723 102.367 213.632 112.855C209.542 123.343 203.752 131.005 196.263 135.841C188.837 140.614 179.995 143 169.737 143ZM169.737 126.232C175.904 126.232 181.222 124.599 185.69 121.333C190.221 118.068 193.714 112.478 196.168 104.565C198.623 96.5894 199.85 85.6304 199.85 71.6884C199.85 57.6208 198.623 46.599 196.168 38.6232C193.714 30.6473 190.221 25.0266 185.69 21.7609C181.222 18.4324 175.904 16.7681 169.737 16.7681C163.569 16.7681 158.22 18.401 153.689 21.6667C149.221 24.9324 145.759 30.5531 143.305 38.529C140.851 46.442 139.623 57.3696 139.623 71.3116C139.623 85.3792 140.851 96.401 143.305 104.377C145.759 112.353 149.221 118.005 153.689 121.333C158.22 124.599 163.569 126.232 169.737 126.232Z" fill="#F5F6F6"/>
<path d="M234.707 109.275V98.2536L287.193 1.78986H306.828L254.531 98.3478L251.982 93.3551H333.014L341 101.315L333.014 109.275H234.707ZM303.524 132.646V93.3551L305.789 55.9994L313.766 48.8913L321.743 55.9994V132.646L312.633 141.21L303.524 132.646Z" fill="#F5F6F6"/>
</svg>
