<svg width="20" height="20" viewBox="0 0 20 20" fill="none" xmlns="http://www.w3.org/2000/svg">
<path d="M17.0833 2.90499C15.6915 1.51876 13.9212 0.574771 11.9948 0.191559C10.0684 -0.191653 8.0717 0.00299445 6.25551 0.751059C4.43932 1.49912 2.88456 2.76726 1.78645 4.39623C0.688338 6.0252 0.0958341 7.94239 0.0833333 9.90707C0.0835085 11.6454 0.541055 13.3531 1.41 14.8585L0 20.0001L5.27667 18.6197C6.79053 19.4429 8.49196 19.8594 10.2148 19.8285C11.9377 19.7976 13.6231 19.3202 15.1064 18.4431C16.5897 17.566 17.8204 16.3191 18.6781 14.8242C19.5358 13.3292 19.9912 11.6374 20 9.91373C20.0028 8.61038 19.7464 7.31949 19.2457 6.11622C18.7449 4.91296 18.0099 3.82136 17.0833 2.90499ZM10.04 18.1495C8.55575 18.1489 7.09859 17.7518 5.81917 16.9992L5.5175 16.8191L2.38167 17.6394L3.215 14.5985L3.01417 14.2884C1.94467 12.5651 1.54593 10.5087 1.89382 8.51049C2.24171 6.51227 3.31195 4.71175 4.90084 3.45162C6.48974 2.19149 8.48636 1.55973 10.5107 1.67659C12.535 1.79344 14.4457 2.65075 15.8792 4.08534C17.0354 5.23713 17.8232 6.70677 18.1424 8.30748C18.4617 9.90819 18.298 11.5677 17.6721 13.0751C17.0463 14.5826 15.9865 15.8698 14.6276 16.7734C13.2686 17.6769 11.6718 18.1559 10.04 18.1495ZM14.5833 11.9877C14.3333 11.8676 13.1067 11.2675 12.885 11.1774C12.6633 11.0874 12.4933 11.0574 12.3225 11.2975C12.1517 11.5375 11.6792 12.1077 11.5383 12.2678C11.3975 12.4278 11.2467 12.4578 10.9958 12.3278C10.262 12.0386 9.58493 11.6221 8.99583 11.0974C8.45183 10.5948 7.98437 10.0151 7.60833 9.37691C7.4675 9.12683 7.58833 8.9968 7.71833 8.86676C7.82917 8.75672 7.96833 8.57667 8.09083 8.43663C8.19275 8.31216 8.27689 8.17414 8.34083 8.02651C8.37311 7.95869 8.38817 7.88397 8.38468 7.80894C8.38119 7.73391 8.35926 7.66091 8.32083 7.59638C8.26083 7.47634 7.75833 6.25598 7.55667 5.75583C7.35583 5.27569 7.145 5.33904 6.99417 5.32571H6.5125C6.38586 5.3278 6.26108 5.35649 6.14624 5.40991C6.03139 5.46333 5.92905 5.54029 5.84583 5.6358C5.56825 5.90358 5.34861 6.22554 5.20053 6.58172C5.05245 6.9379 4.97909 7.32071 4.985 7.70641C5.06622 8.6408 5.41906 9.53098 6 10.2672C7.06663 11.8633 8.53169 13.1529 10.25 14.0083C10.711 14.2108 11.1842 14.3845 11.6667 14.5284C12.1746 14.6816 12.7109 14.7158 13.2342 14.6285C13.5816 14.5604 13.9108 14.4202 14.2006 14.2169C14.4904 14.0135 14.7344 13.7517 14.9167 13.4481C15.0861 13.0792 15.1354 12.6663 15.0575 12.2678C14.985 12.1577 14.8333 12.1077 14.5833 11.9877Z" fill="#D4AF6E"/>
</svg>
