<svg width="20" height="20" viewBox="0 0 20 20" fill="none" xmlns="http://www.w3.org/2000/svg">
<path d="M19.0663 2.79999C18.9607 2.51909 18.7893 2.26761 18.5663 2.06666C18.3229 1.8694 18.0333 1.73747 17.7247 1.68333C17.633 1.67499 17.5497 1.66666 17.458 1.66666C17.2407 1.66624 17.0255 1.70872 16.8247 1.79166L1.89218 7.79166C1.65343 7.88795 1.4398 8.03746 1.26758 8.2288C1.09535 8.42014 0.969064 8.64827 0.898341 8.8958C0.827617 9.14333 0.814321 9.40374 0.859466 9.65719C0.90461 9.91064 1.007 10.1504 1.15885 10.3583C1.36219 10.6382 1.64761 10.8479 1.97551 10.9583L4.99968 12.0083L6.68301 17.55C6.97468 18.335 7.43301 18.5067 8.08218 17.8833L10.3488 15.3917L13.7072 17.9833C14.0038 18.2104 14.367 18.3334 14.7405 18.3333C15.1316 18.3323 15.5106 18.1979 15.8151 17.9525C16.1196 17.7071 16.3314 17.3653 16.4155 16.9833L19.133 3.69166C19.1947 3.39406 19.1716 3.08511 19.0663 2.79999ZM14.7413 16.675L10.758 13.6083C10.6131 13.4944 10.434 13.4327 10.2497 13.4333H10.1747C9.9665 13.4554 9.77372 13.5533 9.63301 13.7083L8.90801 14.5L9.16635 13.2667L15.0663 7.39166C15.207 7.25109 15.2927 7.06488 15.308 6.86666C15.323 6.66768 15.2668 6.46984 15.1497 6.30833C15.0294 6.15079 14.8588 6.03907 14.6663 5.99166C14.6029 5.98197 14.5389 5.97641 14.4747 5.97499C14.3416 5.97567 14.2104 6.00704 14.0913 6.06666L5.61718 10.4583L2.52551 9.39166L2.49968 9.34166L17.4997 3.31333L14.7847 16.6467L14.7622 16.6667L14.7413 16.675ZM7.58301 12.6917L7.32468 13.9333L6.67551 11.7833L10.0497 10.0333L7.80801 12.2667C7.69214 12.3826 7.61376 12.5307 7.58301 12.6917Z" fill="#D4AF6E"/>
</svg>
