<svg width="20" height="20" viewBox="0 0 20 20" fill="none" xmlns="http://www.w3.org/2000/svg">
<path d="M13.4858 6.5225C12.6799 5.7135 11.6183 5.20914 10.482 5.09545C9.34573 4.98176 8.20522 5.26578 7.25497 5.89906C6.30472 6.53234 5.60359 7.47567 5.27116 8.56815C4.93874 9.66063 4.9956 10.8346 5.43206 11.8898C5.86852 12.9451 6.65753 13.8162 7.66454 14.3547C8.67155 14.8932 9.83418 15.0656 10.9541 14.8426C12.0741 14.6197 13.082 14.0151 13.806 13.132C14.53 12.2489 14.9252 11.1419 14.9242 10C14.9255 9.35416 14.7991 8.71442 14.5523 8.11761C14.3054 7.5208 13.943 6.9787 13.4858 6.5225ZM12.2675 12.2675C11.8198 12.7157 11.2491 13.021 10.6278 13.1449C10.0065 13.2687 9.36241 13.2055 8.77704 12.9632C8.19167 12.7209 7.69131 12.3104 7.33926 11.7837C6.98722 11.257 6.79931 10.6377 6.79931 10.0042C6.79931 9.37063 6.98722 8.75133 7.33926 8.22461C7.69131 7.69789 8.19167 7.28742 8.77704 7.04512C9.36241 6.80283 10.0065 6.73961 10.6278 6.86345C11.2491 6.98728 11.8198 7.29262 12.2675 7.74083C12.5642 8.03723 12.7992 8.38949 12.959 8.77726C13.1188 9.16503 13.2001 9.58061 13.1983 10C13.2004 10.8492 12.8657 11.6646 12.2675 12.2675ZM16.125 3.88333C16.021 3.77937 15.8976 3.6969 15.7618 3.64064C15.6259 3.58437 15.4804 3.55541 15.3333 3.55541C15.1863 3.55541 15.0407 3.58437 14.9049 3.64064C14.7691 3.6969 14.6456 3.77937 14.5417 3.88333C14.4377 3.9873 14.3552 4.11072 14.299 4.24655C14.2427 4.38239 14.2137 4.52797 14.2137 4.675C14.2137 4.82203 14.2427 4.96761 14.299 5.10345C14.3552 5.23928 14.4377 5.3627 14.5417 5.46667C14.7555 5.6691 15.0388 5.78191 15.3333 5.78191C15.6278 5.78191 15.9111 5.6691 16.125 5.46667C16.3317 5.25496 16.4473 4.97085 16.4473 4.675C16.4473 4.37915 16.3317 4.09504 16.125 3.88333ZM16.125 3.88333C16.021 3.77937 15.8976 3.6969 15.7618 3.64064C15.6259 3.58437 15.4804 3.55541 15.3333 3.55541C15.1863 3.55541 15.0407 3.58437 14.9049 3.64064C14.7691 3.6969 14.6456 3.77937 14.5417 3.88333C14.4377 3.9873 14.3552 4.11072 14.299 4.24655C14.2427 4.38239 14.2137 4.52797 14.2137 4.675C14.2137 4.82203 14.2427 4.96761 14.299 5.10345C14.3552 5.23928 14.4377 5.3627 14.5417 5.46667C14.7555 5.6691 15.0388 5.78191 15.3333 5.78191C15.6278 5.78191 15.9111 5.6691 16.125 5.46667C16.3317 5.25496 16.4473 4.97085 16.4473 4.675C16.4473 4.37915 16.3317 4.09504 16.125 3.88333ZM13.4858 6.5225C12.6799 5.7135 11.6183 5.20914 10.482 5.09545C9.34573 4.98176 8.20522 5.26578 7.25497 5.89906C6.30472 6.53234 5.60359 7.47567 5.27116 8.56815C4.93874 9.66063 4.9956 10.8346 5.43206 11.8898C5.86852 12.9451 6.65753 13.8162 7.66454 14.3547C8.67155 14.8932 9.83418 15.0656 10.9541 14.8426C12.0741 14.6197 13.082 14.0151 13.806 13.132C14.53 12.2489 14.9252 11.1419 14.9242 10C14.9255 9.35416 14.7991 8.71442 14.5523 8.11761C14.3054 7.5208 13.943 6.9787 13.4858 6.5225ZM12.2675 12.2675C11.8198 12.7157 11.2491 13.021 10.6278 13.1449C10.0065 13.2687 9.36241 13.2055 8.77704 12.9632C8.19167 12.7209 7.69131 12.3104 7.33926 11.7837C6.98722 11.257 6.79931 10.6377 6.79931 10.0042C6.79931 9.37063 6.98722 8.75133 7.33926 8.22461C7.69131 7.69789 8.19167 7.28742 8.77704 7.04512C9.36241 6.80283 10.0065 6.73961 10.6278 6.86345C11.2491 6.98728 11.8198 7.29262 12.2675 7.74083C12.5642 8.03723 12.7992 8.38949 12.959 8.77726C13.1188 9.16503 13.2001 9.58061 13.1983 10C13.2004 10.8492 12.8657 11.6646 12.2675 12.2675ZM13.4858 6.5225C12.6799 5.7135 11.6183 5.20914 10.482 5.09545C9.34573 4.98176 8.20522 5.26578 7.25497 5.89906C6.30472 6.53234 5.60359 7.47567 5.27116 8.56815C4.93874 9.66063 4.9956 10.8346 5.43206 11.8898C5.86852 12.9451 6.65753 13.8162 7.66454 14.3547C8.67155 14.8932 9.83418 15.0656 10.9541 14.8426C12.0741 14.6197 13.082 14.0151 13.806 13.132C14.53 12.2489 14.9252 11.1419 14.9242 10C14.9255 9.35416 14.7991 8.71442 14.5523 8.11761C14.3054 7.5208 13.943 6.9787 13.4858 6.5225ZM12.2675 12.2675C11.8198 12.7157 11.2491 13.021 10.6278 13.1449C10.0065 13.2687 9.36241 13.2055 8.77704 12.9632C8.19167 12.7209 7.69131 12.3104 7.33926 11.7837C6.98722 11.257 6.79931 10.6377 6.79931 10.0042C6.79931 9.37063 6.98722 8.75133 7.33926 8.22461C7.69131 7.69789 8.19167 7.28742 8.77704 7.04512C9.36241 6.80283 10.0065 6.73961 10.6278 6.86345C11.2491 6.98728 11.8198 7.29262 12.2675 7.74083C12.5642 8.03723 12.7992 8.38949 12.959 8.77726C13.1188 9.16503 13.2001 9.58061 13.1983 10C13.2004 10.8492 12.8657 11.6646 12.2675 12.2675ZM16.125 3.88333C16.021 3.77937 15.8976 3.6969 15.7618 3.64064C15.6259 3.58437 15.4804 3.55541 15.3333 3.55541C15.1863 3.55541 15.0407 3.58437 14.9049 3.64064C14.7691 3.6969 14.6456 3.77937 14.5417 3.88333C14.4377 3.9873 14.3552 4.11072 14.299 4.24655C14.2427 4.38239 14.2137 4.52797 14.2137 4.675C14.2137 4.82203 14.2427 4.96761 14.299 5.10345C14.3552 5.23928 14.4377 5.3627 14.5417 5.46667C14.7555 5.6691 15.0388 5.78191 15.3333 5.78191C15.6278 5.78191 15.9111 5.6691 16.125 5.46667C16.3317 5.25496 16.4473 4.97085 16.4473 4.675C16.4473 4.37915 16.3317 4.09504 16.125 3.88333ZM16.125 3.88333C16.021 3.77937 15.8976 3.6969 15.7618 3.64064C15.6259 3.58437 15.4804 3.55541 15.3333 3.55541C15.1863 3.55541 15.0407 3.58437 14.9049 3.64064C14.7691 3.6969 14.6456 3.77937 14.5417 3.88333C14.4377 3.9873 14.3552 4.11072 14.299 4.24655C14.2427 4.38239 14.2137 4.52797 14.2137 4.675C14.2137 4.82203 14.2427 4.96761 14.299 5.10345C14.3552 5.23928 14.4377 5.3627 14.5417 5.46667C14.7555 5.6691 15.0388 5.78191 15.3333 5.78191C15.6278 5.78191 15.9111 5.6691 16.125 5.46667C16.3317 5.25496 16.4473 4.97085 16.4473 4.675C16.4473 4.37915 16.3317 4.09504 16.125 3.88333ZM13.4858 6.5225C12.6799 5.7135 11.6183 5.20914 10.482 5.09545C9.34573 4.98176 8.20522 5.26578 7.25497 5.89906C6.30472 6.53234 5.60359 7.47567 5.27116 8.56815C4.93874 9.66063 4.9956 10.8346 5.43206 11.8898C5.86852 12.9451 6.65753 13.8162 7.66454 14.3547C8.67155 14.8932 9.83418 15.0656 10.9541 14.8426C12.0741 14.6197 13.082 14.0151 13.806 13.132C14.53 12.2489 14.9252 11.1419 14.9242 10C14.9255 9.35416 14.7991 8.71442 14.5523 8.11761C14.3054 7.5208 13.943 6.9787 13.4858 6.5225ZM12.2675 12.2675C11.8198 12.7157 11.2491 13.021 10.6278 13.1449C10.0065 13.2687 9.36241 13.2055 8.77704 12.9632C8.19167 12.7209 7.69131 12.3104 7.33926 11.7837C6.98722 11.257 6.79931 10.6377 6.79931 10.0042C6.79931 9.37063 6.98722 8.75133 7.33926 8.22461C7.69131 7.69789 8.19167 7.28742 8.77704 7.04512C9.36241 6.80283 10.0065 6.73961 10.6278 6.86345C11.2491 6.98728 11.8198 7.29262 12.2675 7.74083C12.5642 8.03723 12.7992 8.38949 12.959 8.77726C13.1188 9.16503 13.2001 9.58061 13.1983 10C13.2004 10.8492 12.8657 11.6646 12.2675 12.2675ZM13.4858 6.5225C12.6799 5.7135 11.6183 5.20914 10.482 5.09545C9.34573 4.98176 8.20522 5.26578 7.25497 5.89906C6.30472 6.53234 5.60359 7.47567 5.27116 8.56815C4.93874 9.66063 4.9956 10.8346 5.43206 11.8898C5.86852 12.9451 6.65753 13.8162 7.66454 14.3547C8.67155 14.8932 9.83418 15.0656 10.9541 14.8426C12.0741 14.6197 13.082 14.0151 13.806 13.132C14.53 12.2489 14.9252 11.1419 14.9242 10C14.9255 9.35416 14.7991 8.71442 14.5523 8.11761C14.3054 7.5208 13.943 6.9787 13.4858 6.5225ZM12.2675 12.2675C11.8198 12.7157 11.2491 13.021 10.6278 13.1449C10.0065 13.2687 9.36241 13.2055 8.77704 12.9632C8.19167 12.7209 7.69131 12.3104 7.33926 11.7837C6.98722 11.257 6.79931 10.6377 6.79931 10.0042C6.79931 9.37063 6.98722 8.75133 7.33926 8.22461C7.69131 7.69789 8.19167 7.28742 8.77704 7.04512C9.36241 6.80283 10.0065 6.73961 10.6278 6.86345C11.2491 6.98728 11.8198 7.29262 12.2675 7.74083C12.5642 8.03723 12.7992 8.38949 12.959 8.77726C13.1188 9.16503 13.2001 9.58061 13.1983 10C13.2004 10.8492 12.8657 11.6646 12.2675 12.2675ZM16.125 3.88333C16.021 3.77937 15.8976 3.6969 15.7618 3.64064C15.6259 3.58437 15.4804 3.55541 15.3333 3.55541C15.1863 3.55541 15.0407 3.58437 14.9049 3.64064C14.7691 3.6969 14.6456 3.77937 14.5417 3.88333C14.4377 3.9873 14.3552 4.11072 14.299 4.24655C14.2427 4.38239 14.2137 4.52797 14.2137 4.675C14.2137 4.82203 14.2427 4.96761 14.299 5.10345C14.3552 5.23928 14.4377 5.3627 14.5417 5.46667C14.7555 5.6691 15.0388 5.78191 15.3333 5.78191C15.6278 5.78191 15.9111 5.6691 16.125 5.46667C16.3317 5.25496 16.4473 4.97085 16.4473 4.675C16.4473 4.37915 16.3317 4.09504 16.125 3.88333ZM16.125 3.88333C16.021 3.77937 15.8976 3.6969 15.7618 3.64064C15.6259 3.58437 15.4804 3.55541 15.3333 3.55541C15.1863 3.55541 15.0407 3.58437 14.9049 3.64064C14.7691 3.6969 14.6456 3.77937 14.5417 3.88333C14.4377 3.9873 14.3552 4.11072 14.299 4.24655C14.2427 4.38239 14.2137 4.52797 14.2137 4.675C14.2137 4.82203 14.2427 4.96761 14.299 5.10345C14.3552 5.23928 14.4377 5.3627 14.5417 5.46667C14.7555 5.6691 15.0388 5.78191 15.3333 5.78191C15.6278 5.78191 15.9111 5.6691 16.125 5.46667C16.3317 5.25496 16.4473 4.97085 16.4473 4.675C16.4473 4.37915 16.3317 4.09504 16.125 3.88333ZM10 5.07583C8.86079 5.07564 7.75675 5.47038 6.87591 6.19283C5.99508 6.91527 5.39194 7.92074 5.16921 9.03796C4.94649 10.1552 5.11796 11.3151 5.65442 12.3201C6.19088 13.325 7.05916 14.113 8.11135 14.5497C9.16354 14.9863 10.3346 15.0447 11.425 14.7149C12.5154 14.3851 13.4578 13.6875 14.0916 12.7409C14.7254 11.7942 15.0114 10.6572 14.901 9.52333C14.7905 8.38949 14.2904 7.329 13.4858 6.5225C13.0295 6.06265 12.4864 5.69798 11.888 5.44964C11.2896 5.20131 10.6479 5.07425 10 5.07583ZM12.2675 12.2675C11.8198 12.7157 11.2491 13.021 10.6278 13.1449C10.0065 13.2687 9.36241 13.2055 8.77704 12.9632C8.19167 12.7209 7.69131 12.3104 7.33926 11.7837C6.98722 11.257 6.79931 10.6377 6.79931 10.0042C6.79931 9.37063 6.98722 8.75133 7.33926 8.22461C7.69131 7.69789 8.19167 7.28742 8.77704 7.04512C9.36241 6.80283 10.0065 6.73961 10.6278 6.86345C11.2491 6.98728 11.8198 7.29262 12.2675 7.74083C12.5642 8.03723 12.7992 8.38949 12.959 8.77726C13.1188 9.16503 13.2001 9.58061 13.1983 10C13.2004 10.8492 12.8657 11.6646 12.2675 12.2675ZM14.2642 0H5.73583C4.21575 0.00374055 2.75899 0.609251 1.68412 1.68412C0.609251 2.75899 0.00374055 4.21575 0 5.73583L0 14.2642C0.00374055 15.7843 0.609251 17.241 1.68412 18.3159C2.75899 19.3907 4.21575 19.9963 5.73583 20H14.2642C15.018 20.0022 15.7649 19.8553 16.4618 19.5679C17.1587 19.2804 17.7919 18.858 18.3249 18.3249C18.858 17.7919 19.2804 17.1587 19.5679 16.4618C19.8553 15.7649 20.0022 15.018 20 14.2642V5.73583C19.9987 4.215 19.3939 2.75684 18.3186 1.68145C17.2432 0.606058 15.785 0.001324 14.2642 0ZM18.2742 14.4667C18.2728 15.4744 17.8746 16.4411 17.1658 17.1575C16.8122 17.513 16.3916 17.7948 15.9282 17.9865C15.4649 18.1782 14.9681 18.276 14.4667 18.2742H5.53333C4.52399 18.2726 3.55644 17.871 2.84273 17.1573C2.12902 16.4436 1.72738 15.476 1.72583 14.4667V5.53333C1.72716 4.52393 2.12873 3.55624 2.84249 2.84249C3.55624 2.12873 4.52393 1.72716 5.53333 1.72583H14.4667C15.4765 1.72583 16.4449 2.12698 17.159 2.84102C17.873 3.55507 18.2742 4.52352 18.2742 5.53333V14.4667ZM15.3333 3.55333C15.112 3.55364 14.8957 3.61963 14.7119 3.74296C14.528 3.86628 14.3849 4.04138 14.3007 4.24609C14.2165 4.45079 14.1949 4.67589 14.2386 4.89288C14.2824 5.10987 14.3896 5.30898 14.5467 5.465C14.7605 5.66743 15.0438 5.78025 15.3383 5.78025C15.6328 5.78025 15.9161 5.66743 16.13 5.465C16.2864 5.30791 16.3927 5.10797 16.4355 4.89046C16.4783 4.67294 16.4556 4.44763 16.3703 4.24301C16.2851 4.03839 16.141 3.86365 15.9564 3.74089C15.7719 3.61813 15.555 3.55286 15.3333 3.55333ZM10 5.07583C8.86079 5.07564 7.75675 5.47038 6.87591 6.19283C5.99508 6.91527 5.39194 7.92074 5.16921 9.03796C4.94649 10.1552 5.11796 11.3151 5.65442 12.3201C6.19088 13.325 7.05916 14.113 8.11135 14.5497C9.16354 14.9863 10.3346 15.0447 11.425 14.7149C12.5154 14.3851 13.4578 13.6875 14.0916 12.7409C14.7254 11.7942 15.0114 10.6572 14.901 9.52333C14.7905 8.38949 14.2904 7.329 13.4858 6.5225C13.0295 6.06265 12.4864 5.69798 11.888 5.44964C11.2896 5.20131 10.6479 5.07425 10 5.07583ZM12.2675 12.2675C11.8198 12.7157 11.2491 13.021 10.6278 13.1449C10.0065 13.2687 9.36241 13.2055 8.77704 12.9632C8.19167 12.7209 7.69131 12.3104 7.33926 11.7837C6.98722 11.257 6.79931 10.6377 6.79931 10.0042C6.79931 9.37063 6.98722 8.75133 7.33926 8.22461C7.69131 7.69789 8.19167 7.28742 8.77704 7.04512C9.36241 6.80283 10.0065 6.73961 10.6278 6.86345C11.2491 6.98728 11.8198 7.29262 12.2675 7.74083C12.5642 8.03723 12.7992 8.38949 12.959 8.77726C13.1188 9.16503 13.2001 9.58061 13.1983 10C13.2004 10.8492 12.8657 11.6646 12.2675 12.2675ZM13.4858 6.5225C12.6799 5.7135 11.6183 5.20914 10.482 5.09545C9.34573 4.98176 8.20522 5.26578 7.25497 5.89906C6.30472 6.53234 5.60359 7.47567 5.27116 8.56815C4.93874 9.66063 4.9956 10.8346 5.43206 11.8898C5.86852 12.9451 6.65753 13.8162 7.66454 14.3547C8.67155 14.8932 9.83418 15.0656 10.9541 14.8426C12.0741 14.6197 13.082 14.0151 13.806 13.132C14.53 12.2489 14.9252 11.1419 14.9242 10C14.9255 9.35416 14.7991 8.71442 14.5523 8.11761C14.3054 7.5208 13.943 6.9787 13.4858 6.5225ZM12.2675 12.2675C11.8198 12.7157 11.2491 13.021 10.6278 13.1449C10.0065 13.2687 9.36241 13.2055 8.77704 12.9632C8.19167 12.7209 7.69131 12.3104 7.33926 11.7837C6.98722 11.257 6.79931 10.6377 6.79931 10.0042C6.79931 9.37063 6.98722 8.75133 7.33926 8.22461C7.69131 7.69789 8.19167 7.28742 8.77704 7.04512C9.36241 6.80283 10.0065 6.73961 10.6278 6.86345C11.2491 6.98728 11.8198 7.29262 12.2675 7.74083C12.5642 8.03723 12.7992 8.38949 12.959 8.77726C13.1188 9.16503 13.2001 9.58061 13.1983 10C13.2004 10.8492 12.8657 11.6646 12.2675 12.2675ZM16.125 3.88333C16.021 3.77937 15.8976 3.6969 15.7618 3.64064C15.6259 3.58437 15.4804 3.55541 15.3333 3.55541C15.1863 3.55541 15.0407 3.58437 14.9049 3.64064C14.7691 3.6969 14.6456 3.77937 14.5417 3.88333C14.4377 3.9873 14.3552 4.11072 14.299 4.24655C14.2427 4.38239 14.2137 4.52797 14.2137 4.675C14.2137 4.82203 14.2427 4.96761 14.299 5.10345C14.3552 5.23928 14.4377 5.3627 14.5417 5.46667C14.7555 5.6691 15.0388 5.78191 15.3333 5.78191C15.6278 5.78191 15.9111 5.6691 16.125 5.46667C16.3317 5.25496 16.4473 4.97085 16.4473 4.675C16.4473 4.37915 16.3317 4.09504 16.125 3.88333ZM16.125 3.88333C16.021 3.77937 15.8976 3.6969 15.7618 3.64064C15.6259 3.58437 15.4804 3.55541 15.3333 3.55541C15.1863 3.55541 15.0407 3.58437 14.9049 3.64064C14.7691 3.6969 14.6456 3.77937 14.5417 3.88333C14.4377 3.9873 14.3552 4.11072 14.299 4.24655C14.2427 4.38239 14.2137 4.52797 14.2137 4.675C14.2137 4.82203 14.2427 4.96761 14.299 5.10345C14.3552 5.23928 14.4377 5.3627 14.5417 5.46667C14.7555 5.6691 15.0388 5.78191 15.3333 5.78191C15.6278 5.78191 15.9111 5.6691 16.125 5.46667C16.3317 5.25496 16.4473 4.97085 16.4473 4.675C16.4473 4.37915 16.3317 4.09504 16.125 3.88333ZM13.4858 6.5225C12.6799 5.7135 11.6183 5.20914 10.482 5.09545C9.34573 4.98176 8.20522 5.26578 7.25497 5.89906C6.30472 6.53234 5.60359 7.47567 5.27116 8.56815C4.93874 9.66063 4.9956 10.8346 5.43206 11.8898C5.86852 12.9451 6.65753 13.8162 7.66454 14.3547C8.67155 14.8932 9.83418 15.0656 10.9541 14.8426C12.0741 14.6197 13.082 14.0151 13.806 13.132C14.53 12.2489 14.9252 11.1419 14.9242 10C14.9255 9.35416 14.7991 8.71442 14.5523 8.11761C14.3054 7.5208 13.943 6.9787 13.4858 6.5225ZM12.2675 12.2675C11.8198 12.7157 11.2491 13.021 10.6278 13.1449C10.0065 13.2687 9.36241 13.2055 8.77704 12.9632C8.19167 12.7209 7.69131 12.3104 7.33926 11.7837C6.98722 11.257 6.79931 10.6377 6.79931 10.0042C6.79931 9.37063 6.98722 8.75133 7.33926 8.22461C7.69131 7.69789 8.19167 7.28742 8.77704 7.04512C9.36241 6.80283 10.0065 6.73961 10.6278 6.86345C11.2491 6.98728 11.8198 7.29262 12.2675 7.74083C12.5642 8.03723 12.7992 8.38949 12.959 8.77726C13.1188 9.16503 13.2001 9.58061 13.1983 10C13.2004 10.8492 12.8657 11.6646 12.2675 12.2675ZM13.4858 6.5225C12.6799 5.7135 11.6183 5.20914 10.482 5.09545C9.34573 4.98176 8.20522 5.26578 7.25497 5.89906C6.30472 6.53234 5.60359 7.47567 5.27116 8.56815C4.93874 9.66063 4.9956 10.8346 5.43206 11.8898C5.86852 12.9451 6.65753 13.8162 7.66454 14.3547C8.67155 14.8932 9.83418 15.0656 10.9541 14.8426C12.0741 14.6197 13.082 14.0151 13.806 13.132C14.53 12.2489 14.9252 11.1419 14.9242 10C14.9255 9.35416 14.7991 8.71442 14.5523 8.11761C14.3054 7.5208 13.943 6.9787 13.4858 6.5225ZM12.2675 12.2675C11.8198 12.7157 11.2491 13.021 10.6278 13.1449C10.0065 13.2687 9.36241 13.2055 8.77704 12.9632C8.19167 12.7209 7.69131 12.3104 7.33926 11.7837C6.98722 11.257 6.79931 10.6377 6.79931 10.0042C6.79931 9.37063 6.98722 8.75133 7.33926 8.22461C7.69131 7.69789 8.19167 7.28742 8.77704 7.04512C9.36241 6.80283 10.0065 6.73961 10.6278 6.86345C11.2491 6.98728 11.8198 7.29262 12.2675 7.74083C12.5642 8.03723 12.7992 8.38949 12.959 8.77726C13.1188 9.16503 13.2001 9.58061 13.1983 10C13.2004 10.8492 12.8657 11.6646 12.2675 12.2675ZM16.125 3.88333C16.021 3.77937 15.8976 3.6969 15.7618 3.64064C15.6259 3.58437 15.4804 3.55541 15.3333 3.55541C15.1863 3.55541 15.0407 3.58437 14.9049 3.64064C14.7691 3.6969 14.6456 3.77937 14.5417 3.88333C14.4377 3.9873 14.3552 4.11072 14.299 4.24655C14.2427 4.38239 14.2137 4.52797 14.2137 4.675C14.2137 4.82203 14.2427 4.96761 14.299 5.10345C14.3552 5.23928 14.4377 5.3627 14.5417 5.46667C14.7555 5.6691 15.0388 5.78191 15.3333 5.78191C15.6278 5.78191 15.9111 5.6691 16.125 5.46667C16.3317 5.25496 16.4473 4.97085 16.4473 4.675C16.4473 4.37915 16.3317 4.09504 16.125 3.88333ZM16.125 3.88333C16.021 3.77937 15.8976 3.6969 15.7618 3.64064C15.6259 3.58437 15.4804 3.55541 15.3333 3.55541C15.1863 3.55541 15.0407 3.58437 14.9049 3.64064C14.7691 3.6969 14.6456 3.77937 14.5417 3.88333C14.4377 3.9873 14.3552 4.11072 14.299 4.24655C14.2427 4.38239 14.2137 4.52797 14.2137 4.675C14.2137 4.82203 14.2427 4.96761 14.299 5.10345C14.3552 5.23928 14.4377 5.3627 14.5417 5.46667C14.7555 5.6691 15.0388 5.78191 15.3333 5.78191C15.6278 5.78191 15.9111 5.6691 16.125 5.46667C16.3317 5.25496 16.4473 4.97085 16.4473 4.675C16.4473 4.37915 16.3317 4.09504 16.125 3.88333ZM13.4858 6.5225C12.6799 5.7135 11.6183 5.20914 10.482 5.09545C9.34573 4.98176 8.20522 5.26578 7.25497 5.89906C6.30472 6.53234 5.60359 7.47567 5.27116 8.56815C4.93874 9.66063 4.9956 10.8346 5.43206 11.8898C5.86852 12.9451 6.65753 13.8162 7.66454 14.3547C8.67155 14.8932 9.83418 15.0656 10.9541 14.8426C12.0741 14.6197 13.082 14.0151 13.806 13.132C14.53 12.2489 14.9252 11.1419 14.9242 10C14.9255 9.35416 14.7991 8.71442 14.5523 8.11761C14.3054 7.5208 13.943 6.9787 13.4858 6.5225ZM12.2675 12.2675C11.8198 12.7157 11.2491 13.021 10.6278 13.1449C10.0065 13.2687 9.36241 13.2055 8.77704 12.9632C8.19167 12.7209 7.69131 12.3104 7.33926 11.7837C6.98722 11.257 6.79931 10.6377 6.79931 10.0042C6.79931 9.37063 6.98722 8.75133 7.33926 8.22461C7.69131 7.69789 8.19167 7.28742 8.77704 7.04512C9.36241 6.80283 10.0065 6.73961 10.6278 6.86345C11.2491 6.98728 11.8198 7.29262 12.2675 7.74083C12.5642 8.03723 12.7992 8.38949 12.959 8.77726C13.1188 9.16503 13.2001 9.58061 13.1983 10C13.2004 10.8492 12.8657 11.6646 12.2675 12.2675ZM13.4858 6.5225C12.6799 5.7135 11.6183 5.20914 10.482 5.09545C9.34573 4.98176 8.20522 5.26578 7.25497 5.89906C6.30472 6.53234 5.60359 7.47567 5.27116 8.56815C4.93874 9.66063 4.9956 10.8346 5.43206 11.8898C5.86852 12.9451 6.65753 13.8162 7.66454 14.3547C8.67155 14.8932 9.83418 15.0656 10.9541 14.8426C12.0741 14.6197 13.082 14.0151 13.806 13.132C14.53 12.2489 14.9252 11.1419 14.9242 10C14.9255 9.35416 14.7991 8.71442 14.5523 8.11761C14.3054 7.5208 13.943 6.9787 13.4858 6.5225ZM12.2675 12.2675C11.8198 12.7157 11.2491 13.021 10.6278 13.1449C10.0065 13.2687 9.36241 13.2055 8.77704 12.9632C8.19167 12.7209 7.69131 12.3104 7.33926 11.7837C6.98722 11.257 6.79931 10.6377 6.79931 10.0042C6.79931 9.37063 6.98722 8.75133 7.33926 8.22461C7.69131 7.69789 8.19167 7.28742 8.77704 7.04512C9.36241 6.80283 10.0065 6.73961 10.6278 6.86345C11.2491 6.98728 11.8198 7.29262 12.2675 7.74083C12.5642 8.03723 12.7992 8.38949 12.959 8.77726C13.1188 9.16503 13.2001 9.58061 13.1983 10C13.2004 10.8492 12.8657 11.6646 12.2675 12.2675ZM16.125 3.88333C16.021 3.77937 15.8976 3.6969 15.7618 3.64064C15.6259 3.58437 15.4804 3.55541 15.3333 3.55541C15.1863 3.55541 15.0407 3.58437 14.9049 3.64064C14.7691 3.6969 14.6456 3.77937 14.5417 3.88333C14.4377 3.9873 14.3552 4.11072 14.299 4.24655C14.2427 4.38239 14.2137 4.52797 14.2137 4.675C14.2137 4.82203 14.2427 4.96761 14.299 5.10345C14.3552 5.23928 14.4377 5.3627 14.5417 5.46667C14.7555 5.6691 15.0388 5.78191 15.3333 5.78191C15.6278 5.78191 15.9111 5.6691 16.125 5.46667C16.3317 5.25496 16.4473 4.97085 16.4473 4.675C16.4473 4.37915 16.3317 4.09504 16.125 3.88333ZM16.125 3.88333C16.021 3.77937 15.8976 3.6969 15.7618 3.64064C15.6259 3.58437 15.4804 3.55541 15.3333 3.55541C15.1863 3.55541 15.0407 3.58437 14.9049 3.64064C14.7691 3.6969 14.6456 3.77937 14.5417 3.88333C14.4377 3.9873 14.3552 4.11072 14.299 4.24655C14.2427 4.38239 14.2137 4.52797 14.2137 4.675C14.2137 4.82203 14.2427 4.96761 14.299 5.10345C14.3552 5.23928 14.4377 5.3627 14.5417 5.46667C14.7555 5.6691 15.0388 5.78191 15.3333 5.78191C15.6278 5.78191 15.9111 5.6691 16.125 5.46667C16.3317 5.25496 16.4473 4.97085 16.4473 4.675C16.4473 4.37915 16.3317 4.09504 16.125 3.88333ZM13.4858 6.5225C12.6799 5.7135 11.6183 5.20914 10.482 5.09545C9.34573 4.98176 8.20522 5.26578 7.25497 5.89906C6.30472 6.53234 5.60359 7.47567 5.27116 8.56815C4.93874 9.66063 4.9956 10.8346 5.43206 11.8898C5.86852 12.9451 6.65753 13.8162 7.66454 14.3547C8.67155 14.8932 9.83418 15.0656 10.9541 14.8426C12.0741 14.6197 13.082 14.0151 13.806 13.132C14.53 12.2489 14.9252 11.1419 14.9242 10C14.9255 9.35416 14.7991 8.71442 14.5523 8.11761C14.3054 7.5208 13.943 6.9787 13.4858 6.5225ZM12.2675 12.2675C11.8198 12.7157 11.2491 13.021 10.6278 13.1449C10.0065 13.2687 9.36241 13.2055 8.77704 12.9632C8.19167 12.7209 7.69131 12.3104 7.33926 11.7837C6.98722 11.257 6.79931 10.6377 6.79931 10.0042C6.79931 9.37063 6.98722 8.75133 7.33926 8.22461C7.69131 7.69789 8.19167 7.28742 8.77704 7.04512C9.36241 6.80283 10.0065 6.73961 10.6278 6.86345C11.2491 6.98728 11.8198 7.29262 12.2675 7.74083C12.5642 8.03723 12.7992 8.38949 12.959 8.77726C13.1188 9.16503 13.2001 9.58061 13.1983 10C13.2004 10.8492 12.8657 11.6646 12.2675 12.2675Z" fill="#D4AF6E"/>
</svg>
