<svg width="19" height="19" viewBox="0 0 19 19" fill="none" xmlns="http://www.w3.org/2000/svg">
<path d="M15.4835 11.5006C14.9171 11.5011 14.3593 11.6395 13.8582 11.904C13.3572 12.1684 12.9279 12.551 12.6075 13.0186L7.73138 10.8144C8.07771 9.97709 8.07906 9.03663 7.73512 8.19837L12.6045 5.98287C13.0794 6.67044 13.7847 7.16484 14.5924 7.3764C15.4002 7.58797 16.257 7.50267 17.0073 7.13599C17.7577 6.76932 18.3519 6.14554 18.6822 5.37782C19.0125 4.61009 19.057 3.74927 18.8077 2.9515C18.5583 2.15373 18.0317 1.47184 17.3232 1.02954C16.6147 0.587229 15.7713 0.413798 14.946 0.540701C14.1207 0.667603 13.3682 1.08643 12.825 1.72122C12.2817 2.35601 11.9837 3.1647 11.985 4.00062C11.9882 4.19847 12.0082 4.39569 12.0449 4.59012L6.86837 6.94512C6.37119 6.47878 5.74879 6.168 5.0776 6.05094C4.40642 5.93388 3.71571 6.01566 3.09031 6.28621C2.46492 6.55677 1.93208 7.00432 1.55726 7.57389C1.18245 8.14346 0.981974 8.81024 0.980477 9.4923C0.97898 10.1744 1.17652 10.842 1.54884 11.4132C1.92115 11.9845 2.45202 12.4343 3.07622 12.7077C3.70042 12.981 4.39077 13.0658 5.06246 12.9517C5.73415 12.8376 6.35792 12.5295 6.85713 12.0654L12.0472 14.4114C12.0111 14.6056 11.9913 14.8026 11.988 15.0001C11.9878 15.6925 12.1928 16.3693 12.5769 16.945C12.961 17.5208 13.507 17.9695 14.1459 18.2345C14.7848 18.4996 15.4879 18.5689 16.1661 18.4339C16.8444 18.2989 17.4674 17.9655 17.9564 17.4759C18.4454 16.9864 18.7784 16.3626 18.9133 15.6836C19.0482 15.0045 18.9789 14.3007 18.7142 13.661C18.4495 13.0214 18.0012 12.4748 17.4262 12.0902C16.8511 11.7056 16.175 11.5005 15.4835 11.5006ZM15.4835 2.00037C15.8787 2.00022 16.265 2.11741 16.5937 2.33711C16.9224 2.55681 17.1786 2.86915 17.3299 3.23464C17.4812 3.60012 17.5209 4.00233 17.4439 4.39039C17.3669 4.77845 17.1767 5.13493 16.8973 5.41474C16.6179 5.69456 16.2619 5.88514 15.8743 5.96238C15.4867 6.03962 15.0849 6.00005 14.7198 5.84868C14.3547 5.69731 14.0426 5.44093 13.823 5.11198C13.6035 4.78302 13.4863 4.39626 13.4863 4.00062C13.4867 3.47037 13.6972 2.96194 14.0716 2.58693C14.4461 2.21192 14.9538 2.00096 15.4835 2.00037ZM4.49659 11.5006C4.1014 11.5008 3.71504 11.3836 3.38638 11.1639C3.05772 10.9442 2.80152 10.6318 2.65019 10.2664C2.49885 9.90087 2.45918 9.49866 2.53618 9.1106C2.61319 8.72254 2.80342 8.36606 3.08281 8.08624C3.3622 7.80643 3.7182 7.61585 4.10578 7.53861C4.49337 7.46137 4.89513 7.50094 5.26025 7.65231C5.62538 7.80368 5.93746 8.06006 6.15703 8.38901C6.3766 8.71797 6.4938 9.10472 6.4938 9.50037C6.4932 10.0306 6.28262 10.5389 5.90822 10.9138C5.53382 11.2888 5.02617 11.4998 4.49659 11.5006ZM15.4835 17.0004C15.0883 17.0004 14.702 16.8831 14.3735 16.6633C14.0449 16.4435 13.7888 16.1311 13.6376 15.7656C13.4864 15.4001 13.4468 14.9979 13.5239 14.6099C13.601 14.2219 13.7913 13.8655 14.0707 13.5857C14.3501 13.306 14.7061 13.1155 15.0937 13.0383C15.4813 12.9611 15.883 13.0007 16.2481 13.1521C16.6131 13.3035 16.9252 13.5599 17.1447 13.8888C17.3643 14.2178 17.4814 14.6045 17.4814 15.0001C17.481 15.5305 17.2704 16.039 16.8958 16.4141C16.5212 16.7891 16.0133 17 15.4835 17.0004Z" fill="#252527"/>
</svg>
